{"title":"CSI.Cyber.S02.COMPLETE.HDTV.x264-LOL","uid":14269155,"size":6935579947,"categoryP":"video","categoryS":"tv_shows","magnet":"?xt=urn:btih:0ba046bc966bf990aa005a2159f78e8a6e706b00&amp;dn=CSI.Cyber.S02.COMPLETE.HDTV.x264-LOL&amp;tr=udp%3A%2F%2Ftracker.leechers-paradise.org%3A6969&amp;tr=udp%3A%2F%2Fzer0day.ch%3A1337&amp;tr=udp%3A%2F%2Fopen.demonii.com%3A1337&amp;tr=udp%3A%2F%2Ftracker.coppersurfer.tk%3A6969&amp;tr=udp%3A%2F%2Fexodus.desync.com%3A6969","seeders":22,"leechers":14,"uploader":"LeRalouf","files":36,"time":1460288561,"description":"CSI: Cyber season 2 x264-LOL, COMPLETE\r\n\r\n\r\nGeneral\r\nFormat : MPEG-4\r\nFormat profile : Base Media\r\nCodec ID : isom\r\nFile size : 352 MiB\r\nDuration : 42mn 0s\r\nOverall bit rate mode : Variable\r\nOverall bit rate : 1 171 Kbps\r\nEncoded date : UTC 2015-10-04 12:34:22\r\nTagged date : UTC 2015-10-04 12:34:22\r\n\r\nVideo\r\nID : 1\r\nFormat : AVC\r\nFormat/Info : Advanced Video Codec\r\nFormat profile :   \r\nFormat settings, CABAC : Yes\r\nFormat settings, ReFrames : 5 frames\r\nCodec ID : avc1\r\nCodec ID/Info : Advanced Video Coding\r\nDuration : 42mn 0s\r\nBit rate : 1 044 Kbps\r\nMaximum bit rate : 7 701 Kbps\r\nWidth : 720 pixels\r\nHeight : 404 pixels\r\nDisplay aspect ratio : 16:9\r\nFrame rate mode : Constant\r\nFrame rate : 23.976 fps\r\nColor space : YUV\r\nChroma subsampling : 4:2:0\r\nBit depth : 8 bits\r\nScan type : Progressive\r\nBits/(Pixel*Frame) : 0.150\r\nStream size : 314 MiB (89%)\r\nWriting library : x264 core 148 r2597 e86f3a1\r\nEncoding settings : cabac=1 / ref=5 / deblock=1:1:1 / analyse=0x3:0x133 / me=umh / subme=9 / psy=1 / psy_rd=1.00:0.00 / mixed_ref=1 / me_range=16 / chroma_me=1 / trellis=2 / 8x8dct=1 / cqm=0 / deadzone=21,11 / fast_pskip=0 / chroma_qp_offset=-2 / threads=16 / lookahead_threads=1 / sliced_threads=0 / nr=0 / decimate=1 / interlaced=0 / bluray_compat=0 / constrained_intra=0 / bframes=3 / b_pyramid=2 / b_adapt=2 / b_bias=0 / direct=3 / weightb=1 / open_gop=0 / weightp=2 / keyint=250 / keyint_min=23 / scenecut=40 / intra_refresh=0 / rc_lookahead=60 / rc=crf / mbtree=1 / crf=19.0 / qcomp=0.60 / qpmin=0 / qpmax=69 / qpstep=4 / ip_ratio=1.40 / aq=1:1.00\r\nEncoded date : UTC 2015-10-04 11:59:11\r\nTagged date : UTC 2015-10-04 12:34:22\r\nMatrix coefficients : BT.709\r\n\r\nAudio\r\nID : 2\r\nFormat : AAC\r\nFormat/Info : Advanced Audio Codec\r\nFormat profile : LC\r\nCodec ID : 40\r\nDuration : 42mn 0s\r\nBit rate mode : Variable\r\nBit rate : 123 Kbps\r\nMaximum bit rate : 156 Kbps\r\nChannel(s) : 2 channels\r\nChannel positions : Front: L R\r\nSampling rate : 48.0 KHz\r\nCompression mode : Lossy\r\nStream size : 37.0 MiB (11%)\r\nEncoded date : UTC 2015-10-04 12:34:22\r\nTagged date : UTC 2015-10-04 12:34:22\r\n\r\n\r\n\r\nThe 1st season, complete, with english subtitles (.srt)","torrent":{"xt":"urn:btih:0ba046bc966bf990aa005a2159f78e8a6e706b00","amp;dn":"CSI.Cyber.S02.COMPLETE.HDTV.x264-LOL","amp;tr":["udp%3A%2F%2Ftracker.leechers-paradise.org%3A6969","udp%3A%2F%2Fzer0day.ch%3A1337","udp%3A%2F%2Fopen.demonii.com%3A1337","udp%3A%2F%2Ftracker.coppersurfer.tk%3A6969","udp%3A%2F%2Fexodus.desync.com%3A6969"],"infoHash":"0ba046bc966bf990aa005a2159f78e8a6e706b00","infoHashBuffer":{"type":"Buffer","data":[11,160,70,188,150,107,249,144,170,0,90,33,89,247,142,138,110,112,107,0]},"announce":[],"urlList":[]}}